<svg width="77" height="77" viewBox="0 0 77 77" fill="none" xmlns="http://www.w3.org/2000/svg">
<g clip-path="url(#clip0_4_57)">
<g filter="url(#filter0_d_4_57)">
<path d="M51 14H26C20.4772 14 16 18.4772 16 24V49C16 54.5228 20.4772 59 26 59H51C56.5228 59 61 54.5228 61 49V24C61 18.4772 56.5228 14 51 14Z" fill="white"/>
<path d="M51 14H26C20.4772 14 16 18.4772 16 24V49C16 54.5228 20.4772 59 26 59H51C56.5228 59 61 54.5228 61 49V24C61 18.4772 56.5228 14 51 14Z" stroke="#FFBA7B" stroke-dasharray="3 3"/>
</g>
<path d="M39 30V44" stroke="#FFBA7B" stroke-width="2" stroke-linecap="round" stroke-linejoin="round"/>
<path d="M32 37H46" stroke="#FFBA7B" stroke-width="2" stroke-linecap="round" stroke-linejoin="round"/>
</g>
<defs>
<filter id="filter0_d_4_57" x="0.5" y="0.5" width="76" height="76" filterUnits="userSpaceOnUse" color-interpolation-filters="sRGB">
<feFlood flood-opacity="0" result="BackgroundImageFix"/>
<feColorMatrix in="SourceAlpha" type="matrix" values="0 0 0 0 0 0 0 0 0 0 0 0 0 0 0 0 0 0 127 0" result="hardAlpha"/>
<feOffset dy="2"/>
<feGaussianBlur stdDeviation="7.5"/>
<feColorMatrix type="matrix" values="0 0 0 0 0.100345 0 0 0 0 0.23463 0 0 0 0 0.268201 0 0 0 0.08 0"/>
<feBlend mode="normal" in2="BackgroundImageFix" result="effect1_dropShadow_4_57"/>
<feBlend mode="normal" in="SourceGraphic" in2="effect1_dropShadow_4_57" result="shape"/>
</filter>
<clipPath id="clip0_4_57">
<rect width="77" height="77" fill="white"/>
</clipPath>
</defs>
</svg>
