<svg width="1366" height="750" viewBox="0 0 1366 750" fill="none" xmlns="http://www.w3.org/2000/svg">
<g clip-path="url(#clip0_1_6)">
<mask id="mask0_1_6" style="mask-type:alpha" maskUnits="userSpaceOnUse" x="0" y="0" width="1366" height="750">
<path d="M1366 0H0V750H1366V0Z" fill="#3366FF"/>
</mask>
<g mask="url(#mask0_1_6)">
<path d="M300 745C300 648.35 221.65 570 125 570C28.3502 570 -50 648.35 -50 745C-50 841.65 28.3502 920 125 920C221.65 920 300 841.65 300 745Z" fill="url(#paint0_linear_1_6)"/>
<path d="M700 229C700 436.107 867.893 604 1075 604C1282.11 604 1450 436.107 1450 229C1450 21.8932 1282.11 -146 1075 -146C867.893 -146 700 21.8932 700 229Z" fill="url(#paint1_linear_1_6)"/>
<path d="M621 298C717.65 298 796 219.65 796 123C796 26.3502 717.65 -52 621 -52C524.35 -52 446 26.3502 446 123C446 219.65 524.35 298 621 298Z" fill="url(#paint2_linear_1_6)"/>
</g>
</g>
<defs>
<linearGradient id="paint0_linear_1_6" x1="-155" y1="1023.5" x2="254.5" y2="620.5" gradientUnits="userSpaceOnUse">
<stop stop-color="white"/>
<stop offset="1" stop-color="white" stop-opacity="0"/>
</linearGradient>
<linearGradient id="paint1_linear_1_6" x1="1675" y1="-367.786" x2="797.5" y2="495.79" gradientUnits="userSpaceOnUse">
<stop stop-color="white"/>
<stop offset="1" stop-color="white" stop-opacity="0"/>
</linearGradient>
<linearGradient id="paint2_linear_1_6" x1="342.5" y1="-157" x2="745.5" y2="252.5" gradientUnits="userSpaceOnUse">
<stop stop-color="white"/>
<stop offset="1" stop-color="white" stop-opacity="0"/>
</linearGradient>
<clipPath id="clip0_1_6">
<rect width="1366" height="750" fill="white"/>
</clipPath>
</defs>
</svg>
