<svg width="50" height="50" viewBox="0 0 50 50" fill="none" xmlns="http://www.w3.org/2000/svg">
<g clip-path="url(#clip0_1_2)">
<path d="M47.2222 0H2.77778C2.04107 0 1.33453 0.292658 0.813592 0.813592C0.292658 1.33453 0 2.04107 0 2.77778V47.2222C0 47.9589 0.292658 48.6656 0.813592 49.1864C1.33453 49.7072 2.04107 50 2.77778 50H26.7083V30.6667H20.2139V23.0972H26.7083V17.5417C26.7083 11.0833 30.6528 7.56389 36.4306 7.56389C38.3722 7.55833 40.3167 7.65833 42.25 7.86111V14.5833H38.2639C35.1306 14.5833 34.5194 16.0778 34.5194 18.2639V23.0833H42.0111L41.0389 30.6528H34.5167V50H47.2222C47.9589 50 48.6656 49.7072 49.1864 49.1864C49.7072 48.6656 50 47.9589 50 47.2222V2.77778C50 2.04107 49.7072 1.33453 49.1864 0.813592C48.6656 0.292658 47.9589 0 47.2222 0Z" fill="#C1C5D0"/>
</g>
<defs>
<clipPath id="clip0_1_2">
<rect width="50" height="50" fill="white"/>
</clipPath>
</defs>
</svg>
