<svg width="51" height="51" viewBox="0 0 51 51" fill="none" xmlns="http://www.w3.org/2000/svg">
<path d="M48.3126 16.0776C48.2868 14.1463 47.9252 12.2342 47.2441 10.4268C46.6533 8.90233 45.7511 7.5178 44.5952 6.36171C43.439 5.20562 42.0543 4.3034 40.53 3.71269C38.7457 3.04293 36.861 2.68081 34.9557 2.64169C32.5026 2.53203 31.7248 2.50143 25.4977 2.50143C19.2706 2.50143 18.4724 2.50143 16.0372 2.64169C14.1327 2.68109 12.2488 3.04324 10.4654 3.71269C8.94068 4.30299 7.55593 5.20505 6.39981 6.3612C5.24367 7.51734 4.34158 8.9021 3.75128 10.4268C3.0802 12.2096 2.71886 14.094 2.68283 15.9986C2.57318 18.4542 2.54004 19.232 2.54004 25.4591C2.54004 31.6863 2.54004 32.4819 2.68283 34.9197C2.72108 36.8271 3.08063 38.709 3.75128 40.4965C4.34257 42.0207 5.24532 43.4048 6.40185 44.5605C7.55838 45.7161 8.94326 46.6178 10.468 47.2081C12.2465 47.9048 14.1307 48.2927 16.0397 48.3556C18.4954 48.4653 19.2731 48.4984 25.5003 48.4984C31.7274 48.4984 32.5255 48.4984 34.9608 48.3556C36.8659 48.3179 38.7511 47.9568 40.5351 47.2872C42.0592 46.6956 43.4433 45.7932 44.5992 44.6372C45.7554 43.4813 46.6579 42.0969 47.2492 40.573C47.9199 38.788 48.2794 36.9061 48.3177 34.9962C48.4273 32.5431 48.4605 31.7653 48.4605 25.5357C48.4554 19.3085 48.4554 18.518 48.3126 16.0776ZM25.4824 37.2351C18.9697 37.2351 13.6937 31.9591 13.6937 25.4463C13.6937 18.9336 18.9697 13.6577 25.4824 13.6577C28.609 13.6577 31.6075 14.8997 33.8181 17.1105C36.0289 19.3213 37.2711 22.3198 37.2711 25.4463C37.2711 28.573 36.0289 31.5713 33.8181 33.7821C31.6075 35.993 28.609 37.2351 25.4824 37.2351ZM37.7403 15.9705C36.2179 15.9705 34.9914 14.7414 34.9914 13.2216C34.9914 12.8608 35.0625 12.5035 35.2005 12.1702C35.3387 11.8368 35.5409 11.5339 35.7961 11.2788C36.0511 11.0236 36.3541 10.8213 36.6876 10.6832C37.0209 10.5451 37.3782 10.474 37.739 10.474C38.0998 10.474 38.4571 10.5451 38.7903 10.6832C39.1239 10.8213 39.4266 11.0236 39.6818 11.2788C39.9371 11.5339 40.1393 11.8368 40.2775 12.1702C40.4155 12.5035 40.4866 12.8608 40.4866 13.2216C40.4866 14.7414 39.2575 15.9705 37.7403 15.9705Z" fill="#C1C5D0"/>
<path d="M25.4827 33.1043C29.7118 33.1043 33.1403 29.6759 33.1403 25.4466C33.1403 21.2174 29.7118 17.789 25.4827 17.789C21.2535 17.789 17.8251 21.2174 17.8251 25.4466C17.8251 29.6759 21.2535 33.1043 25.4827 33.1043Z" fill="#C1C5D0"/>
</svg>
