<svg width="53" height="43" viewBox="0 0 53 43" fill="none" xmlns="http://www.w3.org/2000/svg">
<path d="M47.3887 10.742C47.4236 11.2124 47.4236 11.68 47.4236 12.1476C47.4236 26.4585 36.5312 42.9489 16.6249 42.9489C10.492 42.9489 4.7945 41.1725 0 38.0872C0.87075 38.1867 1.70925 38.2216 2.61494 38.2216C7.48735 38.2335 12.2218 36.6043 16.0551 33.5964C13.7961 33.5556 11.6062 32.8103 9.79121 31.4647C7.97623 30.1191 6.62678 28.24 5.93131 26.0904C6.6005 26.1898 7.27237 26.257 7.9765 26.257C8.94669 26.257 9.92225 26.1226 10.8279 25.8888C8.37629 25.3938 6.17176 24.0649 4.58923 22.1282C3.00667 20.1913 2.1438 17.7662 2.14731 15.2651V15.1307C3.5905 15.9343 5.26481 16.4369 7.03856 16.504C5.55262 15.5166 4.33419 14.1768 3.49198 12.6039C2.64977 11.0311 2.20997 9.27429 2.21181 7.49017C2.21181 5.47992 2.74663 3.63629 3.68456 2.02918C6.40469 5.37516 9.79728 8.11249 13.6427 10.0639C17.488 12.0153 21.7004 13.1372 26.0069 13.357C25.8403 12.5507 25.7382 11.7149 25.7382 10.8764C25.7375 9.45463 26.017 8.04664 26.5608 6.73294C27.1045 5.41926 27.9019 4.22561 28.9073 3.22024C29.9127 2.21489 31.1062 1.41753 32.4198 0.873763C33.7338 0.329995 35.1417 0.0504728 36.5634 0.0511793C39.6809 0.0511793 42.4948 1.3573 44.4728 3.46967C46.8963 3.00102 49.2202 2.11631 51.342 0.85474C50.5341 3.35631 48.8421 5.47753 46.5824 6.82098C48.7319 6.57583 50.8325 6.01059 52.8148 5.14398C51.3342 7.30231 49.4997 9.19499 47.3887 10.742Z" fill="#C1C5D0"/>
</svg>
