<svg width="50" height="50" viewBox="0 0 50 50" fill="none" xmlns="http://www.w3.org/2000/svg">
<path d="M25.1181 10.9029C21.4508 10.9067 17.9349 12.3648 15.3415 14.9577C12.7481 17.5506 11.2891 21.0664 11.2847 24.7336C11.2819 27.3447 12.0153 29.8892 13.3986 32.0919L13.7264 32.6141L12.3292 37.717L17.5653 36.3447L18.0681 36.6447C20.2 37.9064 22.6322 38.5714 25.1097 38.5697C28.7759 38.5644 32.293 37.1061 34.8856 34.5141C37.4781 31.9219 38.9372 28.4078 38.943 24.7419C38.9494 22.9247 38.5953 21.1244 37.9011 19.4449C37.2067 17.7657 36.1864 16.2407 34.8986 14.9585C33.6178 13.6692 32.0936 12.6469 30.4147 11.9507C28.7359 11.2545 26.9356 10.8984 25.1181 10.9029ZM33.2514 30.6753C32.9041 31.6475 31.243 32.5308 30.4459 32.6503C29.5719 32.8008 28.6747 32.7447 27.8264 32.4864C27.0216 32.237 26.2305 31.9449 25.457 31.6114C21.2847 29.8114 18.5625 25.6141 18.3514 25.3336C18.1459 25.0559 16.657 23.0781 16.657 21.0336C16.657 18.9863 17.7292 17.9807 18.1097 17.564C18.2495 17.4062 18.4202 17.2788 18.6114 17.1899C18.8026 17.101 19.0101 17.0525 19.2208 17.0474C19.4986 17.0474 19.7736 17.0501 20.0181 17.0612C20.2736 17.0723 20.6153 16.964 20.9514 17.7752C21.2986 18.6085 22.1319 20.653 22.2347 20.8614C22.3375 21.067 22.407 21.3114 22.2708 21.5892C22.1319 21.8697 22.0653 22.0392 21.8541 22.2836C21.6486 22.5281 21.4181 22.8253 21.2319 23.0141C21.0236 23.2197 20.807 23.4447 21.0486 23.8614C21.293 24.2753 22.1264 25.6392 23.3597 26.7419C24.9486 28.1586 26.2903 28.5947 26.7041 28.8059C27.1208 29.0114 27.3625 28.9808 27.607 28.7003C27.8486 28.4197 28.6459 27.4864 28.9236 27.0725C29.2014 26.6559 29.4764 26.7253 29.8597 26.8614C30.2403 27.003 32.2848 28.0059 32.6986 28.2141C33.1097 28.4197 33.3903 28.5253 33.4959 28.7003C33.5959 28.8725 33.5959 29.703 33.2514 30.6753Z" fill="#C1C5D0"/>
<path d="M47.2222 0H2.77778C2.04106 0 1.33453 0.292667 0.813586 0.813586C0.292667 1.33453 0 2.04106 0 2.77778V47.2222C0 47.9589 0.292667 48.6656 0.813586 49.1864C1.33453 49.7072 2.04106 50 2.77778 50H47.2222C47.9589 50 48.6656 49.7072 49.1864 49.1864C49.7072 48.6656 50 47.9589 50 47.2222V2.77778C50 2.04106 49.7072 1.33453 49.1864 0.813586C48.6656 0.292667 47.9589 0 47.2222 0ZM25.1111 41.3778H25.1056C22.3281 41.3781 19.5944 40.6819 17.1556 39.3527L8.33333 41.6667L10.6944 33.0444C9.23605 30.5144 8.46905 27.6453 8.47049 24.7253C8.47192 21.8051 9.24173 18.9366 10.7026 16.4081C12.1634 13.8796 14.2639 11.78 16.7931 10.3202C19.3222 8.86044 22.1908 8.09186 25.1111 8.09167C27.2986 8.08562 29.4659 8.51392 31.4867 9.3517C33.5073 10.1895 35.3416 11.4201 36.8833 12.9722C38.4322 14.5148 39.6594 16.3495 40.4944 18.3697C41.3292 20.39 41.7549 22.5559 41.7472 24.7416C41.7405 29.1519 39.9859 33.3795 36.8672 36.4978C33.7489 39.6164 29.5214 41.3711 25.1111 41.3778Z" fill="#C1C5D0"/>
</svg>
